<svg width="253" height="189" viewBox="0 0 253 189" fill="none" xmlns="http://www.w3.org/2000/svg">
<g clip-path="url(#clip0_131_152)">
<path d="M214.429 128.493L204.225 138.864C204.019 138.864 203.813 138.864 203.607 138.864C199.877 138.847 196.524 138.778 195.35 138.726C183.619 138.182 174.701 128.977 174.701 116.596C174.701 104.215 183.722 94.3447 195.35 94.3447C200.512 94.3447 205.151 96.2601 208.727 99.4869L201.078 107.787C199.491 106.519 197.519 105.785 195.341 105.785C189.853 105.785 185.668 110.401 185.668 116.587C185.668 122.773 189.544 127.053 195.067 127.562C196.344 127.674 200.7 127.665 203.547 127.51L203.513 121.79L192.58 121.85L192.717 121.703L203.247 110.996L203.393 110.85H203.462L214.335 110.789L214.395 121.608V121.729L214.429 128.485V128.493Z" fill="black"/>
<path d="M216.607 108.796L227.438 97.8994H252.348L242.598 107.701H227.438V113.153H242.11V122.954H227.438V128.407H242.11V138.208H216.616V108.796H216.607Z" fill="black"/>
<path d="M130.702 123.739L159.506 94.75H172.625V139.347H160.646V133.316H139.5L150.279 122.471H160.637V109.702L130.693 139.951L114.581 139.96L130.702 123.739Z" fill="black"/>
<path d="M56.2784 139.96V105.587L44.299 93.5342H44.2904V139.96H56.2784Z" fill="black"/>
<path d="M12.9484 124.697V95.3455H0.660308V95.3627H0.651733V139.96H13.7716L42.5754 110.97H42.584V94.7588L12.9484 124.697Z" fill="black"/>
<path d="M124.15 128.209H104.042V93.5078H91.8823V128.209H91.9938L92.0881 128.312L91.8823 128.209V139.96H103.656L103.665 139.951H112.488L124.15 128.209Z" fill="black"/>
<path d="M90.2787 128.209H70.1701V93.5078H58.0106V128.209H58.1135L58.2164 128.312L58.0106 128.209V139.96H69.7842V139.951H90.253L90.2787 128.209Z" fill="black"/>
<path d="M212.225 13.5887L212.217 13.5801L198.72 0H198.248H187.898H187.418L173.011 14.5033H173.003V27.8763L187.898 12.795V43.6393V43.6565H188.095H198.042H198.239V43.6393H198.248V12.795L212.225 26.9618V13.5887Z" fill="black"/>
<path d="M174.632 71.878V57.6077L186.552 45.5547V71.6364C186.552 75.5966 188.815 78.832 193.103 78.832C197.39 78.832 199.654 75.7691 199.654 71.6364V45.5547H211.574V71.878C211.574 82.3694 203.89 90.5226 193.094 90.5226C182.298 90.5226 174.615 82.3694 174.615 71.878" fill="black"/>
<path d="M240.472 47.6162C239.88 47.3574 239.271 47.133 238.654 46.926C236.399 46.184 233.963 45.7871 231.391 45.7871H213.64V99.6848H225.011V72.1536V56.6495H231.391C234.306 56.6495 236.844 57.7883 238.654 59.6692C240.446 61.5242 241.518 64.1039 241.518 67.0028C241.518 69.9017 240.463 72.4987 238.654 74.3278C236.862 76.1482 234.341 77.244 231.391 77.244H227.009V77.2785L237.085 87.4161C237.616 87.2867 238.139 87.1314 238.645 86.9675C243.49 85.38 247.486 82.2049 250.016 77.986C251.911 74.8368 252.991 71.101 252.991 67.0028C252.991 58.0817 247.958 50.843 240.463 47.6076L240.472 47.6162Z" fill="black"/>
<path d="M65.3766 73.8024L94.7807 44.2178H108.158V89.7293H95.9383V83.5777H74.3633L85.3566 72.5082H95.9297V59.4717L65.368 90.3505V73.811L65.3766 73.8024Z" fill="black"/>
<path d="M123.885 67.7625H128.164C131.654 67.7625 134.098 65.3036 134.098 61.3607C134.098 57.7284 131.714 55.2695 128.164 55.2695H122.23V89.7288H109.993V56.5032L122.23 44.1914H129.75C139.294 44.1914 146.386 49.7908 146.386 59.5747C146.386 64.6824 144.919 67.6331 142.227 70.2818L146.326 74.3455V90.3414L123.876 67.7539L123.885 67.7625Z" fill="black"/>
<path d="M83.2043 44.2694L71.6279 55.9169H63.3529V90.3503H50.4731V55.9169H38.2192L49.727 44.3298L49.7956 44.2694H50.8504L50.8589 44.2607H62.9756V44.2694H83.2043Z" fill="black"/>
<path d="M184.528 44.8036L173.037 56.3561H164.899V90.5221H152.114V56.3561H147.706V44.8036H152.491V44.7949H164.522V44.8036H184.528Z" fill="black"/>
<path d="M0 78.9441H19.2768C22.1924 78.9441 23.1785 77.3221 23.1785 75.8295C23.1785 74.3369 22.1838 72.7148 19.2768 72.7148H19.1568C9.6127 72.7148 3.10419 67.4174 3.10419 58.3755C3.10419 49.3336 9.80135 44.0361 19.9629 44.0361H47.4203L36.3242 55.2609H19.4055C16.4899 55.2609 15.6238 56.9433 15.6238 58.3755C15.6238 59.8077 16.4899 61.4901 19.1568 61.4901H19.6542C29.2583 61.4901 35.7068 66.7272 35.7068 75.8985C35.7068 85.0698 29.0782 90.1775 18.8481 90.1775H0V78.9527V78.9441Z" fill="black"/>
<path d="M122.77 142.427C110.087 142.427 99.8057 152.84 99.8057 165.67C99.8057 178.499 110.087 188.922 122.77 188.922C135.452 188.922 145.743 178.508 145.743 165.67C145.743 152.832 135.461 142.427 122.77 142.427ZM122.77 177.326C116.416 177.326 111.262 172.106 111.262 165.679C111.262 159.251 116.416 154.031 122.77 154.031C129.124 154.031 134.278 159.242 134.278 165.679C134.278 172.115 129.124 177.326 122.77 177.326Z" fill="black"/>
<path d="M34.189 177.646H53.4658C56.3813 177.646 57.3675 176.006 57.3675 174.505C57.3675 173.004 56.3728 171.365 53.4658 171.365H53.3458C43.8017 171.365 37.2932 166.024 37.2932 156.904C37.2932 147.785 43.9903 142.444 54.1518 142.444H81.6093L70.5131 153.764H53.5944C50.6789 153.764 49.8128 155.464 49.8128 156.904C49.8128 158.345 50.6789 160.045 53.3458 160.045H53.8431C63.4472 160.045 69.8957 165.325 69.8957 174.574C69.8957 183.823 63.2672 188.974 53.0371 188.974H34.1975V177.654L34.189 177.646Z" fill="black"/>
<path d="M98.468 152.254L108.218 142.505H83.9761L71.808 154.946L71.8166 188.871H97.9792V179.121H83.3072V170.631H97.9792V160.882H83.3072V152.254H98.468Z" fill="black"/>
<path d="M147.578 170.347V154.446L159.497 142.393V170.114C159.497 174.074 161.761 177.309 166.048 177.309C170.336 177.309 172.6 174.246 172.6 170.114V142.393H184.519V170.347C184.519 180.838 176.836 188.991 166.04 188.991C155.244 188.991 147.561 180.838 147.561 170.347" fill="black"/>
<path d="M218.811 177.102H198.694V142.393H186.534V177.102H186.646L186.74 177.197L186.534 177.102V188.845H198.317V188.836H218.785L218.811 177.102Z" fill="black"/>
</g>
<defs>
<clipPath id="clip0_131_152">
<rect width="253" height="189" fill="white"/>
</clipPath>
</defs>
</svg>
