<svg width="412" height="307" viewBox="0 0 412 307" fill="none" xmlns="http://www.w3.org/2000/svg">
<g clip-path="url(#clip0_131_2153)">
<path d="M349.176 208.737L332.571 225.582C332.238 225.582 331.904 225.582 331.571 225.582C325.514 225.556 320.048 225.453 318.123 225.35C299.029 224.475 284.504 209.51 284.504 189.393C284.504 169.277 299.183 153.256 318.123 153.256C326.515 153.256 334.086 156.372 339.911 161.627L327.464 175.124C324.872 173.063 321.664 171.878 318.123 171.878C309.192 171.878 302.366 179.374 302.366 189.419C302.366 199.464 308.679 206.419 317.661 207.243C319.74 207.423 326.823 207.397 331.468 207.166L331.417 197.867L313.606 197.97L313.837 197.739L330.98 180.352L331.211 180.121H331.314L349.022 180.018L349.124 197.584V197.764L349.176 208.737Z" fill="url(#paint0_linear_131_2153)"/>
<path d="M352.717 176.721L370.374 159.025H410.922L395.062 174.943H370.374V183.804H394.266V199.722H370.374V208.582H394.266V224.5H352.743V176.721H352.717Z" fill="url(#paint1_linear_131_2153)"/>
<path d="M212.826 201.01L259.739 153.926H281.091V226.355H261.587V216.567H227.172L244.726 198.949H261.587V178.189L212.826 227.334H186.573L212.826 201.01Z" fill="url(#paint2_linear_131_2153)"/>
<path d="M91.6438 227.334V171.518L72.1396 151.942V227.334H91.6438Z" fill="url(#paint3_linear_131_2153)"/>
<path d="M21.0951 202.555V154.879H1.07764V154.905V227.334H22.4296L69.3422 180.25V153.926L21.0951 202.555Z" fill="url(#paint4_linear_131_2153)"/>
<path d="M202.176 208.273H169.429V151.891H149.617V208.273H149.797L149.951 208.428L149.617 208.273V227.333H168.788H168.813H183.185L202.176 208.273Z" fill="url(#paint5_linear_131_2153)"/>
<path d="M147 208.273H114.253V151.891H94.4668V208.273H94.6464L94.8004 208.428L94.4668 208.273V227.333H113.637H146.974L147 208.273Z" fill="url(#paint6_linear_131_2153)"/>
<path d="M345.583 22.0739L323.589 0H322.82H305.959H305.189L281.732 23.5421V23.5678V45.2812L305.959 20.7861V70.8838H305.984V70.9096H306.292H322.486H322.82V70.8838V20.7861L345.583 43.7872V22.0739Z" fill="url(#paint7_linear_131_2153)"/>
<path d="M284.376 116.757V93.5755L303.778 74V116.371C303.778 122.81 307.473 128.064 314.453 128.064C321.434 128.064 325.129 123.093 325.129 116.371V74H344.531V116.757C344.531 133.808 332.007 147.047 314.453 147.047C296.9 147.047 284.376 133.808 284.376 116.757Z" fill="url(#paint8_linear_131_2153)"/>
<path d="M391.598 77.3482C390.622 76.9361 389.647 76.5497 388.646 76.2149C384.976 75.0043 380.999 74.3604 376.815 74.3604H347.918V161.909H366.447V117.195V92.004H376.841C381.589 92.004 385.721 93.8585 388.672 96.8979C391.598 99.9115 393.343 104.11 393.343 108.823C393.343 113.537 391.623 117.735 388.672 120.723C385.746 123.685 381.64 125.463 376.841 125.463H369.707V125.514L386.106 141.973C386.978 141.767 387.825 141.509 388.646 141.252C396.525 138.676 403.043 133.525 407.15 126.673C410.229 121.548 412 115.495 412 108.823C412 94.3222 403.813 82.5769 391.598 77.3224V77.3482Z" fill="url(#paint9_linear_131_2153)"/>
<path d="M106.452 119.873L154.34 71.8359H176.128V145.759H156.213V135.765H121.08L138.993 117.787H156.213V96.6144L106.452 146.764V119.899V119.873Z" fill="url(#paint10_linear_131_2153)"/>
<path d="M201.74 110.086H208.72C214.392 110.086 218.37 106.094 218.37 99.6802C218.37 93.7818 214.495 89.7894 208.72 89.7894H199.071V145.76H179.156V91.7727L199.071 71.7852H211.312C226.864 71.7852 238.413 80.8774 238.413 96.7696C238.413 105.063 236.026 109.854 231.638 114.156L238.31 120.75V146.739L201.766 110.06L201.74 110.086Z" fill="url(#paint11_linear_131_2153)"/>
<path d="M135.503 71.9135L116.64 90.8192H103.167V146.764H82.2V90.8192H62.2339L80.9682 72.0165L81.0965 71.9135H82.8159V71.8877H102.551V71.9135H135.503Z" fill="url(#paint12_linear_131_2153)"/>
<path d="M300.492 72.7894L281.784 91.5407H268.516V147.047H247.703V91.5407H240.517V72.7894H248.319V72.7637H267.9V72.7894H300.492Z" fill="url(#paint13_linear_131_2153)"/>
<path d="M0 128.219H31.3863C36.134 128.219 37.7508 125.592 37.7508 123.145C37.7508 120.698 36.134 118.096 31.3863 118.096H31.181C15.629 118.096 5.05569 109.493 5.05569 94.8118C5.05569 80.1302 15.9626 71.5273 32.5155 71.5273H77.2211L59.1541 89.7634H31.6173C26.8696 89.7634 25.4581 92.4937 25.4581 94.8376C25.4581 97.1815 26.8696 99.886 31.2067 99.886H32.0022C47.6312 99.886 58.1276 108.386 58.1276 123.274C58.1276 138.161 47.3233 146.455 30.6677 146.455H0V128.219Z" fill="url(#paint14_linear_131_2153)"/>
<path d="M199.918 231.352C179.259 231.352 162.526 248.274 162.526 269.112C162.526 289.949 179.285 306.897 199.918 306.897C220.551 306.897 237.335 289.975 237.335 269.112C237.335 248.248 220.577 231.352 199.918 231.352ZM199.918 288.043C189.576 288.043 181.184 279.569 181.184 269.112C181.184 258.654 189.576 250.206 199.918 250.206C210.26 250.206 218.652 258.68 218.652 269.112C218.652 279.543 210.26 288.043 199.918 288.043Z" fill="url(#paint15_linear_131_2153)"/>
<path d="M55.6895 288.558H87.0758C91.8235 288.558 93.4403 285.905 93.4403 283.458C93.4403 281.011 91.8235 278.358 87.0758 278.358H86.8705C71.3184 278.358 60.7451 269.678 60.7451 254.868C60.7451 240.057 71.6521 231.377 88.205 231.377H132.911L114.844 249.768H87.3067C82.559 249.768 81.1475 252.524 81.1475 254.868C81.1475 257.211 82.559 259.967 86.8961 259.967H87.6917C103.321 259.967 113.817 268.545 113.817 283.561C113.817 298.577 103.013 306.949 86.3572 306.949H55.6895V288.558Z" fill="url(#paint16_linear_131_2153)"/>
<path d="M160.345 247.321L176.23 231.48H136.76L116.922 251.7L116.948 306.794H159.549V290.98H135.657V277.174H159.549V261.333H135.657V247.321H160.345Z" fill="url(#paint17_linear_131_2153)"/>
<path d="M240.312 276.71V250.875L259.714 231.3V276.323C259.714 282.763 263.409 288.017 270.39 288.017C277.37 288.017 281.065 283.046 281.065 276.323V231.3H300.467V276.71C300.467 293.761 287.943 307 270.39 307C252.836 307 240.312 293.761 240.312 276.71Z" fill="url(#paint18_linear_131_2153)"/>
<path d="M356.311 287.682H323.564V231.3H303.752V287.682H303.932L304.086 287.837L303.752 287.682V306.768H322.948V306.743H356.285L356.311 287.682Z" fill="url(#paint19_linear_131_2153)"/>
</g>
<defs>
<linearGradient id="paint0_linear_131_2153" x1="38.623" y1="348.727" x2="473.17" y2="105.388" gradientUnits="userSpaceOnUse">
<stop offset="0.08" stop-color="#7A4E93"/>
<stop offset="0.3" stop-color="#715297"/>
<stop offset="0.5" stop-color="#428EC4"/>
<stop offset="0.6" stop-color="#16A5C0"/>
<stop offset="0.72" stop-color="#1BA795"/>
<stop offset="0.97" stop-color="#24A568"/>
</linearGradient>
<linearGradient id="paint1_linear_131_2153" x1="54.3292" y1="376.777" x2="488.876" y2="133.438" gradientUnits="userSpaceOnUse">
<stop offset="0.08" stop-color="#7A4E93"/>
<stop offset="0.3" stop-color="#715297"/>
<stop offset="0.5" stop-color="#428EC4"/>
<stop offset="0.6" stop-color="#16A5C0"/>
<stop offset="0.72" stop-color="#1BA795"/>
<stop offset="0.97" stop-color="#24A568"/>
</linearGradient>
<linearGradient id="paint2_linear_131_2153" x1="26.7668" y1="327.581" x2="461.314" y2="84.2419" gradientUnits="userSpaceOnUse">
<stop offset="0.08" stop-color="#7A4E93"/>
<stop offset="0.3" stop-color="#715297"/>
<stop offset="0.5" stop-color="#428EC4"/>
<stop offset="0.6" stop-color="#16A5C0"/>
<stop offset="0.72" stop-color="#1BA795"/>
<stop offset="0.97" stop-color="#24A568"/>
</linearGradient>
<linearGradient id="paint3_linear_131_2153" x1="-18.7087" y1="246.368" x2="415.838" y2="3.05506" gradientUnits="userSpaceOnUse">
<stop offset="0.08" stop-color="#7A4E93"/>
<stop offset="0.3" stop-color="#715297"/>
<stop offset="0.5" stop-color="#428EC4"/>
<stop offset="0.6" stop-color="#16A5C0"/>
<stop offset="0.72" stop-color="#1BA795"/>
<stop offset="0.97" stop-color="#24A568"/>
</linearGradient>
<linearGradient id="paint4_linear_131_2153" x1="-34.9024" y1="217.443" x2="399.644" y2="-25.8958" gradientUnits="userSpaceOnUse">
<stop offset="0.08" stop-color="#7A4E93"/>
<stop offset="0.3" stop-color="#715297"/>
<stop offset="0.5" stop-color="#428EC4"/>
<stop offset="0.6" stop-color="#16A5C0"/>
<stop offset="0.72" stop-color="#1BA795"/>
<stop offset="0.97" stop-color="#24A568"/>
</linearGradient>
<linearGradient id="paint5_linear_131_2153" x1="1.56511" y1="282.583" x2="436.112" y2="39.2437" gradientUnits="userSpaceOnUse">
<stop offset="0.08" stop-color="#7A4E93"/>
<stop offset="0.3" stop-color="#715297"/>
<stop offset="0.5" stop-color="#428EC4"/>
<stop offset="0.6" stop-color="#16A5C0"/>
<stop offset="0.72" stop-color="#1BA795"/>
<stop offset="0.97" stop-color="#24A568"/>
</linearGradient>
<linearGradient id="paint6_linear_131_2153" x1="-9.39291" y1="263.007" x2="425.154" y2="19.6683" gradientUnits="userSpaceOnUse">
<stop offset="0.08" stop-color="#7A4E93"/>
<stop offset="0.3" stop-color="#715297"/>
<stop offset="0.5" stop-color="#428EC4"/>
<stop offset="0.6" stop-color="#16A5C0"/>
<stop offset="0.72" stop-color="#1BA795"/>
<stop offset="0.97" stop-color="#24A568"/>
</linearGradient>
<linearGradient id="paint7_linear_131_2153" x1="-28.5893" y1="228.698" x2="405.957" y2="-14.6152" gradientUnits="userSpaceOnUse">
<stop offset="0.08" stop-color="#7A4E93"/>
<stop offset="0.3" stop-color="#715297"/>
<stop offset="0.5" stop-color="#428EC4"/>
<stop offset="0.6" stop-color="#16A5C0"/>
<stop offset="0.72" stop-color="#1BA795"/>
<stop offset="0.97" stop-color="#24A568"/>
</linearGradient>
<linearGradient id="paint8_linear_131_2153" x1="3.18218" y1="285.467" x2="437.729" y2="42.1275" gradientUnits="userSpaceOnUse">
<stop offset="0.08" stop-color="#7A4E93"/>
<stop offset="0.3" stop-color="#715297"/>
<stop offset="0.5" stop-color="#428EC4"/>
<stop offset="0.6" stop-color="#16A5C0"/>
<stop offset="0.72" stop-color="#1BA795"/>
<stop offset="0.97" stop-color="#24A568"/>
</linearGradient>
<linearGradient id="paint9_linear_131_2153" x1="16.9636" y1="310.064" x2="451.51" y2="66.7257" gradientUnits="userSpaceOnUse">
<stop offset="0.08" stop-color="#7A4E93"/>
<stop offset="0.3" stop-color="#715297"/>
<stop offset="0.5" stop-color="#428EC4"/>
<stop offset="0.6" stop-color="#16A5C0"/>
<stop offset="0.72" stop-color="#1BA795"/>
<stop offset="0.97" stop-color="#24A568"/>
</linearGradient>
<linearGradient id="paint10_linear_131_2153" x1="-33.1058" y1="220.661" x2="401.441" y2="-22.6779" gradientUnits="userSpaceOnUse">
<stop offset="0.08" stop-color="#7A4E93"/>
<stop offset="0.3" stop-color="#715297"/>
<stop offset="0.5" stop-color="#428EC4"/>
<stop offset="0.6" stop-color="#16A5C0"/>
<stop offset="0.72" stop-color="#1BA795"/>
<stop offset="0.97" stop-color="#24A568"/>
</linearGradient>
<linearGradient id="paint11_linear_131_2153" x1="-20.0687" y1="243.921" x2="414.478" y2="0.607135" gradientUnits="userSpaceOnUse">
<stop offset="0.08" stop-color="#7A4E93"/>
<stop offset="0.3" stop-color="#715297"/>
<stop offset="0.5" stop-color="#428EC4"/>
<stop offset="0.6" stop-color="#16A5C0"/>
<stop offset="0.72" stop-color="#1BA795"/>
<stop offset="0.97" stop-color="#24A568"/>
</linearGradient>
<linearGradient id="paint12_linear_131_2153" x1="-50.4027" y1="189.727" x2="384.118" y2="-53.5865" gradientUnits="userSpaceOnUse">
<stop offset="0.08" stop-color="#7A4E93"/>
<stop offset="0.3" stop-color="#715297"/>
<stop offset="0.5" stop-color="#428EC4"/>
<stop offset="0.6" stop-color="#16A5C0"/>
<stop offset="0.72" stop-color="#1BA795"/>
<stop offset="0.97" stop-color="#24A568"/>
</linearGradient>
<linearGradient id="paint13_linear_131_2153" x1="-11.1894" y1="259.787" x2="423.357" y2="16.4734" gradientUnits="userSpaceOnUse">
<stop offset="0.08" stop-color="#7A4E93"/>
<stop offset="0.3" stop-color="#715297"/>
<stop offset="0.5" stop-color="#428EC4"/>
<stop offset="0.6" stop-color="#16A5C0"/>
<stop offset="0.72" stop-color="#1BA795"/>
<stop offset="0.97" stop-color="#24A568"/>
</linearGradient>
<linearGradient id="paint14_linear_131_2153" x1="-65.0567" y1="163.584" x2="369.49" y2="-79.7554" gradientUnits="userSpaceOnUse">
<stop offset="0.08" stop-color="#7A4E93"/>
<stop offset="0.3" stop-color="#715297"/>
<stop offset="0.5" stop-color="#428EC4"/>
<stop offset="0.6" stop-color="#16A5C0"/>
<stop offset="0.72" stop-color="#1BA795"/>
<stop offset="0.97" stop-color="#24A568"/>
</linearGradient>
<linearGradient id="paint15_linear_131_2153" x1="44.5004" y1="356.789" x2="479.047" y2="113.476" gradientUnits="userSpaceOnUse">
<stop offset="0.08" stop-color="#7A4E93"/>
<stop offset="0.3" stop-color="#715297"/>
<stop offset="0.5" stop-color="#428EC4"/>
<stop offset="0.6" stop-color="#16A5C0"/>
<stop offset="0.72" stop-color="#1BA795"/>
<stop offset="0.97" stop-color="#24A568"/>
</linearGradient>
<linearGradient id="paint16_linear_131_2153" x1="17.5023" y1="308.571" x2="452.049" y2="65.2323" gradientUnits="userSpaceOnUse">
<stop offset="0.08" stop-color="#7A4E93"/>
<stop offset="0.3" stop-color="#715297"/>
<stop offset="0.5" stop-color="#428EC4"/>
<stop offset="0.6" stop-color="#16A5C0"/>
<stop offset="0.72" stop-color="#1BA795"/>
<stop offset="0.97" stop-color="#24A568"/>
</linearGradient>
<linearGradient id="paint17_linear_131_2153" x1="32.0792" y1="334.612" x2="466.626" y2="91.2733" gradientUnits="userSpaceOnUse">
<stop offset="0.08" stop-color="#7A4E93"/>
<stop offset="0.3" stop-color="#715297"/>
<stop offset="0.5" stop-color="#428EC4"/>
<stop offset="0.6" stop-color="#16A5C0"/>
<stop offset="0.72" stop-color="#1BA795"/>
<stop offset="0.97" stop-color="#24A568"/>
</linearGradient>
<linearGradient id="paint18_linear_131_2153" x1="61.1559" y1="386.538" x2="495.703" y2="143.199" gradientUnits="userSpaceOnUse">
<stop offset="0.08" stop-color="#7A4E93"/>
<stop offset="0.3" stop-color="#715297"/>
<stop offset="0.5" stop-color="#428EC4"/>
<stop offset="0.6" stop-color="#16A5C0"/>
<stop offset="0.72" stop-color="#1BA795"/>
<stop offset="0.97" stop-color="#24A568"/>
</linearGradient>
<linearGradient id="paint19_linear_131_2153" x1="75.6815" y1="412.476" x2="510.228" y2="169.163" gradientUnits="userSpaceOnUse">
<stop offset="0.08" stop-color="#7A4E93"/>
<stop offset="0.3" stop-color="#715297"/>
<stop offset="0.5" stop-color="#428EC4"/>
<stop offset="0.6" stop-color="#16A5C0"/>
<stop offset="0.72" stop-color="#1BA795"/>
<stop offset="0.97" stop-color="#24A568"/>
</linearGradient>
<clipPath id="clip0_131_2153">
<rect width="412" height="307" fill="white"/>
</clipPath>
</defs>
</svg>
